# xmcd CD Database Entry
#
# Track frame offsets:
# 150
# 19590
# 41522
# 58750
# 85330
# 99412
# 120485
# 136002
# 156280
# 169167
# 187455
# 211982
# 229772
#
# Disc length: 3470 seconds
#
# Revision: 2
# Processed by: cddbd v1.4PL0 Copyright (c) Steve Scherf et al.
# Submitted via: tcd 2.0b
#
DISCID=ac0d8c0d
DTITLE=Allison Moorer - Miss Fortune
DYEAR=2002
DGENRE=Country
TTITLE0=Tumbling Down
TTITLE1=Cold in California
TTITLE2=Let Go
TTITLE3=Ruby Jewel Was Here
TTITLE4=Can't Get There From Here
TTITLE5=Steal the Sun
TTITLE6=Up This High
TTITLE7=Hey Jezebel
TTITLE8=Mark My Word
TTITLE9=No Place for a Heart
TTITLE10=Yessirree
TTITLE11=Going Down
TTITLE12=Dying Breed
EXTD=YEAR: 2002 ID3G: 2
EXTT0=
EXTT1=
EXTT2=
EXTT3=
EXTT4=
EXTT5=
EXTT6=
EXTT7=
EXTT8=
EXTT9=
EXTT10=
EXTT11=
EXTT12=
PLAYORDER=
